<?xml version="1.0" encoding="UTF-8"?>
<!DOCTYPE svg PUBLIC "-//W3C//DTD SVG 1.1//EN" "http://www.w3.org/Graphics/SVG/1.1/DTD/svg11.dtd">
<!-- Creator: CorelDRAW X7 -->
<svg xmlns="http://www.w3.org/2000/svg" xml:space="preserve" width="78.0626mm" height="74.7976mm" version="1.1" style="shape-rendering:geometricPrecision; text-rendering:geometricPrecision; image-rendering:optimizeQuality; fill-rule:evenodd; clip-rule:evenodd"
viewBox="0 0 7806 7480"
 xmlns:xlink="http://www.w3.org/1999/xlink">
 <defs>
  <style type="text/css">
   <![CDATA[
    .str0 {stroke:#231605;stroke-width:8.46}
    .str2 {stroke:#B46F31;stroke-width:8.46}
    .str3 {stroke:#9E5B25;stroke-width:7.62}
    .str1 {stroke:#B46F31;stroke-width:7.62}
    .fil0 {fill:#231605}
    .fil9 {fill:#563819}
    .fil7 {fill:#774E27}
    .fil3 {fill:#9E5B25}
    .fil2 {fill:#B46F31}
    .fil8 {fill:#D35D41}
    .fil6 {fill:#F0A311}
    .fil5 {fill:#F17D6B}
    .fil1 {fill:#F3B067}
    .fil4 {fill:#F9C01D}
   ]]>
  </style>
 </defs>
 <g id="Layer_x0020_1">
  <metadata id="CorelCorpID_0Corel-Layer"/>
  <g id="_378606832">
   <path class="fil0 str0" d="M1079 6400c4,26 18,57 31,71 84,86 429,207 523,231 143,36 171,50 342,88 309,68 829,149 1121,162 136,7 272,26 408,24 136,-1 289,13 429,15 335,4 887,-31 1221,-73 175,-22 589,-82 732,-124 127,-37 223,-46 342,-89 242,-86 265,-76 493,-227 75,-50 26,-35 73,-73 28,11 57,23 77,45 70,72 66,110 -7,204 -18,23 -10,18 -34,36 -20,16 -12,7 -32,27 -115,117 -486,256 -633,307 -292,102 -972,211 -1272,238 -243,22 -720,51 -960,48 -165,-2 -330,-14 -485,-14 -100,-1 -354,-28 -466,-36 -261,-18 -619,-74 -874,-134 -249,-59 -524,-117 -763,-237 -52,-26 -125,-51 -166,-80l-114 -73c-38,-29 5,-6 -63,-64 -84,-74 -88,-230 77,-272zm4801 -2193l0 0zm-4047 -245c0,45 -9,144 76,144 40,0 34,-17 68,-26 12,32 19,163 51,229 -107,-25 -184,-88 -242,-164 -50,-65 -97,-199 -105,-302 17,-26 48,-49 67,-76 77,-107 97,-181 127,-313 162,0 97,-8 25,193 -26,72 -67,218 -67,315zm4047 245l32 -188c18,-143 2,-124 2,-201 114,0 107,-71 80,-198 -20,-90 -48,-157 -77,-237 -28,-79 -60,-144 -91,-222 -31,-75 -39,-172 -39,-275 8,9 4,3 14,20l37 82c10,20 16,27 28,48l78 150c64,152 59,318 226,477 11,11 11,12 23,19 21,14 10,7 34,17 -36,51 -43,227 -180,381l-17 17c-34,32 -107,100 -150,110zm-5231 -1728c-25,-61 -204,-432 -83,-463 81,-21 144,96 173,145 87,146 226,494 289,657 -118,66 -58,21 -194,112l-185 -451zm6347 1232c27,27 10,6 23,38 45,5 41,7 80,-8 27,179 39,326 21,513 -7,81 -17,153 -34,235 -16,74 -42,144 -58,216 -13,-12 -9,-6 -19,-27l-24 -93c-15,11 -5,1 -14,17l-25 68c-75,201 -101,183 -161,281 -24,40 -2,10 -27,32 -40,36 -44,84 -122,133l-72 55c-136,99 -166,102 -324,177 -131,62 -254,77 -402,104l-9 -14c-18,-33 15,28 -7,-13 -23,-45 -51,-136 -78,-151 -16,-49 -44,-98 -88,-121 3,86 27,165 44,251 69,334 97,451 128,810l24 431c-110,12 -249,48 -363,66 -387,60 -779,108 -1175,115 -443,7 -789,10 -1233,-33 -107,-11 -288,-40 -391,-37 -95,-16 -195,-29 -281,-41 -89,-13 -205,-46 -288,-52 -16,-9 -91,-19 -119,-24l-103 -25c-19,-8 -11,-5 -22,-11 11,-88 15,-186 35,-274 11,-51 17,-78 25,-129l99 -367 94 -223c-241,-17 -590,-101 -786,-235 -46,-32 -95,-56 -138,-92 -1,-1 -3,-3 -4,-4l-77 -68c-27,-23 -41,-37 -63,-63 -11,-14 -16,-22 -26,-34 -16,-18 -7,-7 -17,-17 -13,-14 3,6 -15,-18 -106,-144 -62,-104 -145,-247l-13 21c-1,0 -9,29 -10,33 -7,27 -10,36 -11,66 -24,-14 -22,5 -49,-79 -7,-24 -20,-66 -28,-82 -37,-209 -53,-173 -61,-431 -6,-166 18,-295 42,-445 49,14 142,65 158,-9 -20,-44 -214,-62 -291,-494 -54,-301 69,-40 -293,-510 -308,-400 -96,-395 41,-270l319 324c17,18 43,54 57,74 -14,41 -51,70 -41,113 28,6 104,-65 132,-85 116,-81 167,-117 303,-171 29,-12 57,-21 88,-32 46,-16 61,-8 63,-54 -28,-6 -48,-13 -79,-6 -13,-163 -15,-306 -38,-467 -12,-77 -59,-343 -20,-418 27,-53 92,-32 131,43 78,147 89,293 107,460 12,120 14,235 20,355 8,164 56,280 57,322 -57,40 -100,60 -137,107l-60 93c-73,147 -45,305 -7,301l5 -13c23,-101 0,-132 98,-276 39,-57 33,-59 99,-97 180,-104 93,-41 150,-146l111 -193c35,-52 158,-196 240,-87 7,85 -65,225 -95,291 -115,251 -94,562 -301,689 -44,28 -85,53 -138,64l3 43c17,13 21,25 53,30 30,6 60,0 80,2 2,75 66,252 104,309 16,23 29,37 42,59 15,26 19,39 43,58l125 86c83,48 189,88 293,121 62,20 266,93 314,87 -8,-6 -13,-14 -19,-21l-115 -92c-42,-49 -1,23 -68,-76 -207,-307 -105,-508 -142,-612 -53,6 -12,17 -132,75 -6,-67 47,-258 78,-322 21,-45 34,-93 60,-134 29,-45 49,-83 68,-132l-195 9c8,-30 11,-30 28,-54l53 -66c14,-14 4,-3 17,-15 60,-57 166,-251 193,-325 42,-114 -3,-73 141,-146 400,-203 1032,-373 1483,-432 181,-24 351,-33 534,-48 190,-15 391,6 567,14 180,9 331,56 497,87l3 44 23 52c48,163 72,251 89,437 7,84 4,189 28,268 8,28 66,133 90,216 29,39 100,229 99,301 -31,-12 -59,-34 -107,-29 87,309 11,572 -126,832 -14,48 -43,64 -55,96 -15,39 -12,14 -2,35 39,1 95,-41 126,-65l25 -25c10,-10 15,-13 26,-24 112,-117 15,-38 195,-112 52,-21 143,-90 186,-126 26,-21 26,-29 46,-55l83 -119c40,-64 104,-235 110,-312 67,13 123,19 146,-44 -36,-20 -68,-25 -105,-45 -222,-117 -238,-265 -302,-461 -46,-144 -160,-282 -201,-409 -36,-111 41,-156 134,-101 122,72 194,265 258,358 93,-1 68,-20 154,26 70,37 74,44 116,88 111,114 94,131 135,222 17,38 0,18 23,24 70,-109 -94,-414 -329,-458 50,-311 -45,-1117 129,-1246 165,-122 91,507 90,615 -1,100 5,198 4,296 -13,10 -2,3 -18,11 -29,15 -26,5 -51,31 25,30 140,44 184,59 129,42 283,124 383,209 19,16 39,37 73,36 2,-55 -31,-81 -55,-117 73,-96 84,-93 121,-138 34,-40 85,-102 121,-133 57,-50 210,-260 283,-190 83,80 -198,451 -264,539 -155,203 -94,107 -116,313 -14,131 -58,276 -137,374 -20,25 -41,45 -61,66 -20,20 -37,29 -71,44zm-59 -1528c37,-105 109,-375 253,-341 71,128 -154,670 -209,884 -30,-16 -60,-40 -96,-56 -34,-14 -69,-21 -106,-39l158 -448zm-3614 -1938c46,-8 102,-30 153,-42 143,-33 354,-51 495,-30 225,32 320,174 414,323 14,22 8,10 19,32l98 223c133,345 144,625 203,805 14,44 9,40 46,45 36,-158 -23,-494 -56,-662 -20,-100 -52,-198 -85,-288 -47,-130 -89,-178 -117,-245 259,89 346,162 523,305 31,25 16,23 73,71 16,13 21,22 36,40l190 259c118,195 199,415 243,649 -279,-63 -497,-106 -796,-117 -141,-6 -294,-3 -436,8l-400 47 -61 16c-362,51 -612,153 -920,266 -61,22 -107,47 -166,71 -115,46 -209,108 -312,159 -8,7 -74,49 -98,65l-149 106c-40,31 -112,72 -125,120 49,-7 399,-184 432,-213 56,-18 124,-52 181,-79 52,-26 118,-48 175,-72 115,-46 244,-91 370,-129 558,-167 1154,-273 1748,-203 231,27 630,96 789,203 170,114 55,281 -85,245 -21,-5 -71,-29 -90,-35 -35,-13 -62,-21 -98,-31 -364,-104 -743,-119 -1120,-103 -285,12 -610,53 -885,115 -124,29 -709,182 -758,224 -176,65 -359,142 -521,232l-155 88c-19,-20 -11,-23 -32,-48 -37,-47 -103,-71 -168,-78 -108,-524 9,-1123 348,-1543l260 -273c44,-31 156,-127 215,-147 63,-56 315,-165 435,-162 209,5 347,310 422,479 57,130 116,316 154,456 23,82 41,200 91,212 36,-168 -97,-636 -159,-786 -92,-221 -104,-237 -222,-381 -20,-24 -37,-40 -60,-58 -29,-24 -113,-81 -148,-85 18,-22 20,-20 55,-32 16,-6 45,-15 54,-22zm-1642 1939c0,152 10,330 42,465 -108,57 -165,211 -212,246 2,-56 16,-103 5,-174 -9,-60 1,-121 -6,-180 -26,-229 -29,-582 -204,-745 -62,-58 -135,-74 -216,-42 -165,65 -111,363 -92,495l22 189c-15,-17 -11,-13 -20,-39 -7,-20 -9,-31 -17,-51 -60,-149 -125,-305 -244,-415 -66,-61 -164,-93 -251,-53l-41 28c-2,1 -4,2 -5,4 -202,173 115,624 155,797 -27,-19 -84,-89 -117,-120 -1,-1 -3,-3 -4,-4 -1,-1 -3,-3 -4,-4 -1,-1 -3,-3 -4,-4 -77,-80 -173,-165 -294,-165 -116,0 -170,102 -170,203 0,131 260,487 371,595 76,75 59,102 71,208 20,188 140,393 141,418 0,10 -19,99 -23,118 -74,365 -10,872 172,1173 99,163 146,89 183,62 65,124 215,237 330,314 235,156 638,223 639,224 25,16 0,52 -7,77 -36,122 -16,78 -211,111 -178,30 -350,76 -512,140 -507,202 -609,590 -98,873 58,32 105,57 166,87 371,186 765,254 1171,337 537,110 1167,123 1731,123 39,0 79,0 118,1l803 -61c208,-26 428,-66 635,-102 31,-5 75,-15 105,-22l197 -48c35,-9 70,-20 99,-28l367 -124c212,-81 673,-303 673,-572 0,-446 -796,-595 -1107,-638 -125,-17 -77,10 -108,-163 -7,-39 -18,-78 -21,-114 77,-2 270,-54 335,-80 187,-72 383,-166 526,-311 69,-70 85,-79 151,-163 22,-28 29,-33 46,-64 66,15 81,1 127,-59 194,-252 236,-762 192,-1090 -17,-131 -55,-117 13,-212 42,-59 71,-130 90,-198 18,-67 42,-176 44,-253 1,-70 -12,-75 27,-116 23,-25 44,-52 65,-80 115,-152 297,-395 297,-600 0,-83 -69,-160 -152,-160 -86,0 -130,13 -197,66 -90,72 -295,326 -303,331 26,-110 122,-324 163,-497 29,-126 62,-302 -51,-392 -35,-27 -71,-33 -120,-33 -127,0 -225,165 -264,261l-143 382 10 -134c11,-106 7,-238 7,-349 0,-177 -54,-321 -220,-321 -352,0 -262,971 -262,1219l-52 -75c-54,-71 -141,-162 -245,-162 -189,0 -162,68 -220,110 -28,-59 -33,-185 -59,-246 234,55 493,-262 226,-504 -1,-2 -3,-3 -4,-4 -54,-48 -116,-84 -188,-101 -4,-146 -121,-465 -187,-601l-120 -219c-89,-132 -191,-269 -314,-371 -102,-86 -211,-165 -333,-226l-245 -102c-56,-18 -125,-22 -163,-57l-25 -25c-12,-12 -19,-17 -33,-27 -23,-17 -48,-32 -73,-46 -297,-159 -850,-94 -1119,78 -136,88 -81,126 -206,167l-142 61c-138,61 -290,168 -404,265l-151 144c-7,7 -11,9 -18,17 -88,88 -164,200 -227,306 -32,54 -69,114 -95,176 -107,251 -192,520 -192,875z"/>
   <path class="fil1" d="M3906 3150c2,46 -28,32 -64,69l-29 30c-42,30 -117,77 -174,89 -267,58 -370,-99 -620,-53 -142,26 -224,64 -314,160 -10,10 -20,19 -31,29 -23,18 -12,4 -30,29 -12,15 -33,46 -44,65 -72,129 -81,349 -34,499 10,33 19,57 29,89 34,99 92,174 151,256l69 83c100,73 57,67 95,99l76 60c1,1 3,3 5,4 33,25 130,92 162,98 -14,44 -3,9 -27,41 -17,20 -13,23 -25,43 -16,26 -36,48 -52,75 -65,112 -250,458 -217,555 43,-10 15,-13 60,-43 58,-38 21,-20 55,-46l52 -31c-120,293 -243,697 -275,1010 -6,66 -16,126 -20,192 -3,61 -4,137 -14,204 103,-3 284,26 391,37 444,43 790,40 1233,33 396,-7 788,-55 1175,-115 114,-18 253,-54 363,-66l-24 -431c-14,28 4,161 9,207 7,68 3,149 5,221 -86,12 -368,83 -434,68 -3,-74 6,-168 2,-234 -7,-85 -17,-152 -27,-232 -9,-76 -21,-137 -41,-212 -11,-38 -16,-64 -27,-100 -12,-38 -24,-56 -36,-99l140 77c-12,-119 -23,-219 -56,-322 -12,-39 -83,-219 -112,-260 -46,77 -55,77 -121,127 -390,292 -908,40 -1064,-389 -4,11 11,41 19,64 -153,-38 -213,-50 -354,-120 -53,-27 -224,-173 -232,-223 33,13 76,41 119,57 126,46 126,48 259,79 53,12 99,13 151,29l-55 -209c-62,-21 -125,-28 -190,-56 -119,-51 -202,-105 -299,-184l-220 -261c-145,-196 -201,-463 -220,-490 -89,35 -122,112 -158,103 -49,-31 -16,-104 22,-156 88,-117 238,-132 345,-73 20,12 51,41 24,69 -23,24 -64,6 -100,17 10,59 103,127 139,156 157,127 429,225 641,248 176,19 365,32 540,-21 43,-13 128,-47 162,-75 35,-27 71,-57 97,-117 15,-35 29,-77 22,-117 -158,-9 -350,-84 -442,-194 -161,-192 -127,-335 11,-486 68,-75 214,-113 234,-126 -127,-6 -263,9 -380,47 -100,33 -273,118 -295,123z"/>
   <path class="fil2 str1" d="M3047 3053c-14,-37 -3,-100 17,-139l76 -92c44,-35 65,-55 107,-71 144,-55 275,-55 398,50 71,60 117,138 82,233 -53,11 -32,-14 -80,-48 -36,-26 -11,-11 -35,-33 -92,-90 -256,-113 -389,-32 -52,31 -54,34 -101,87 -8,10 -8,9 -15,18 -20,22 -22,30 -60,27zm2285 -193c-44,-2 -55,-35 -79,-58 -108,-104 -272,-109 -369,-14l-44 41c-85,73 -89,-72 -42,-137l63 -71c24,-25 51,-32 81,-46 221,-104 458,149 390,285zm-2886 1737c6,7 11,15 19,21 -48,6 -252,-67 -314,-87 -104,-33 -210,-73 -293,-121l-125 -86c-24,-19 -28,-32 -43,-58 -13,-22 -26,-36 -42,-59 -38,-57 -102,-234 -104,-309 -20,-2 -50,4 -80,-2 -32,-5 -36,-17 -53,-30 -1,-2 -2,-4 -2,-5l-16 -40c-42,7 -60,2 -100,-8l-21 36c-121,116 -270,79 -385,57 -16,74 -109,23 -158,9 -24,150 -48,279 -42,445 8,258 24,222 61,431 24,-20 -10,-111 -16,-148 -11,-59 -14,-110 -21,-165 -13,-98 0,-254 4,-353 32,237 71,461 153,678 27,-12 21,-38 33,-81l13 -32c4,31 37,75 52,96l40 53c1,2 3,4 4,5l36 49c1,1 6,7 7,9l28 31c9,11 10,17 16,27 22,40 44,58 80,81 7,4 15,8 22,13 30,21 1,1 22,19 1,1 3,3 4,4l332 212c5,-41 -9,-92 -10,-124 -2,-56 -4,-19 11,-37 32,39 -14,10 66,59l263 118c71,19 126,39 207,48 32,4 197,25 227,35 -5,101 -115,384 -107,563 1,-2 4,-7 5,-6 1,2 4,-4 6,-5 44,-39 69,-29 116,-49 -15,63 -38,117 -44,177l-56 383c-13,69 -8,136 -12,203 -26,12 -50,-7 -75,-5 -29,4 -15,-3 -33,14 83,6 199,39 288,52 86,12 186,25 281,41 10,-67 11,-143 14,-204 4,-66 14,-126 20,-192 32,-313 155,-717 275,-1010l-52 31c-34,26 3,8 -55,46 -45,30 -17,33 -60,43 -33,-97 152,-443 217,-555 16,-27 36,-49 52,-75 12,-20 8,-23 25,-43 24,-32 13,3 27,-41 -32,-6 -129,-73 -162,-98 -2,-1 -4,-3 -5,-4l-76 -60c-38,-32 5,-26 -95,-99l-69 -83c-59,-82 -117,-157 -151,-256 -10,-32 -19,-56 -29,-89 -47,-150 -38,-370 34,-499 11,-19 32,-50 44,-65 18,-25 7,-11 30,-29 11,-10 21,-19 31,-29 90,-96 172,-134 314,-160 250,-46 353,111 620,53 57,-12 132,-59 174,-89l29 -30c36,-37 66,-23 64,-69 -9,-22 -9,-24 39,-74 17,-17 50,-45 68,-58l76 -50c28,-17 57,-27 88,-39 269,-106 581,-70 845,37 35,14 55,23 87,41l74 52c12,10 23,24 33,34 9,8 23,20 31,28 26,28 16,51 48,72 41,22 99,11 143,17 173,24 202,75 308,135 -24,-83 -82,-188 -90,-216 -24,-79 -21,-184 -28,-268 -17,-186 -41,-274 -89,-437l-23 -52c-9,67 19,58 17,99 -12,-12 -192,-40 -217,-44 -47,-8 -73,-14 -118,-19l-367 -30c-210,-22 -778,32 -1004,65 -79,11 -150,26 -224,38 -268,41 -800,193 -1032,305 -164,78 -54,22 -150,87l-69 66c-39,49 -133,215 -151,275l164 -9 -63 83c-1,2 -2,4 -3,5 -1,1 -3,3 -4,5 -1,1 -11,13 -11,13l-115 199c-12,30 -24,81 -19,113l10 32c0,-1 2,5 4,9l88 -4c-17,361 35,555 221,847 18,28 10,20 33,44 18,19 15,14 27,34 -19,19 -18,3 -40,31 -23,-6 -2,-26 -47,-19z"/>
   <path class="fil2 str2" d="M6498 3698c-23,63 -79,57 -146,44 -6,77 -70,248 -110,312l-83 119c-20,26 -20,34 -46,55 -43,36 -134,105 -186,126 -180,74 -83,-5 -195,112 -11,11 -16,14 -26,24l-25 25c-31,24 -87,66 -126,65 -10,-21 -13,4 2,-35 12,-32 41,-48 55,-96 7,-50 50,-68 43,-135 -3,-25 -12,-52 -18,-75 -24,-89 -25,-49 -29,-67 -1,-5 -4,-5 -7,-7 -1,65 -71,190 -103,245 -13,22 -21,26 -38,46l-33 43c-1,1 -3,3 -4,4 -35,39 -46,65 -103,85 4,33 12,60 32,79 21,148 12,358 -16,493 -16,42 11,16 -1,26 -1,1 -3,4 -4,5l-16 36c-7,15 -11,26 -19,40 -14,22 -30,45 -45,61 29,41 100,221 112,260 33,103 44,203 56,322l-140 -77c12,43 24,61 36,99 11,36 16,62 27,100 20,75 32,136 41,212 10,80 20,147 27,232 4,66 -5,160 -2,234 66,15 357,-59 444,-71 -4,-124 -4,-307 -14,-425 -32,-359 -69,-476 -138,-810 -17,-86 -41,-165 -44,-251 44,23 72,72 88,121l8 -23c1,-27 -15,-43 -35,-62 12,-15 -8,-7 34,1 17,3 35,6 53,8 45,4 81,-1 124,-4 92,-7 211,-38 289,-74 42,-19 171,-86 200,-113 19,-17 22,-33 30,-45l-6 72 110 -46c1,-1 3,-2 5,-3l10 -7c55,-35 36,-22 59,-51 45,-57 74,-77 123,-131l88 -107c30,-40 84,-113 99,-155 5,-12 5,-32 20,-44 30,-23 -6,19 36,-20l-6 115 24 93c10,21 6,15 19,27 16,-72 42,-142 58,-216 17,-82 27,-154 34,-235 18,-187 6,-334 -21,-513 -39,15 -35,13 -80,8 -13,-32 4,-11 -23,-38 -98,34 -171,40 -267,2 -50,-20 -42,-46 -101,-29 -46,13 -74,13 -130,14z"/>
   <path class="fil3" d="M1079 6400c-165,42 -161,198 -77,272 68,58 25,35 63,64l114 73c41,29 114,54 166,80 239,120 514,178 763,237 255,60 613,116 874,134 112,8 366,35 466,36 155,0 320,12 485,14 240,3 717,-26 960,-48 300,-27 980,-136 1272,-238 147,-51 518,-190 633,-307 20,-20 12,-11 32,-27 24,-18 16,-13 34,-36 73,-94 77,-132 7,-204 -20,-22 -49,-34 -77,-45 -47,38 2,23 -73,73 -228,151 -251,141 -493,227 -119,43 -215,52 -342,89 -143,42 -557,102 -732,124 -334,42 -886,77 -1221,73 -140,-2 -293,-16 -429,-15 -136,2 -272,-17 -408,-24 -292,-13 -812,-94 -1121,-162 -171,-38 -199,-52 -342,-88 -94,-24 -439,-145 -523,-231 -13,-14 -27,-45 -31,-71z"/>
   <path class="fil4" d="M3323 245l17 7c3,1 5,2 8,2 3,1 5,1 8,1 19,2 24,-13 70,14 117,66 37,16 87,73 59,65 75,42 141,147 36,57 116,265 127,322 15,75 39,142 50,213l96 624c0,1 -1,4 -1,5 0,1 0,3 0,4l0 11 400 -47c142,-11 295,-14 436,-8 299,11 517,54 796,117 -44,-234 -125,-454 -243,-649l-190 -259c-15,-18 -20,-27 -36,-40 -57,-48 -42,-46 -73,-71 -177,-143 -264,-216 -523,-305 28,67 70,115 117,245 33,90 65,188 85,288 33,168 92,504 56,662 -37,-5 -32,-1 -46,-45 -59,-180 -70,-460 -203,-805l-98 -223c-11,-22 -5,-10 -19,-32 -94,-149 -189,-291 -414,-323 -141,-21 -352,-3 -495,30 -51,12 -107,34 -153,42z"/>
   <path class="fil0" d="M5018 4313c195,248 317,584 165,881 -24,46 -53,86 -82,114 -23,22 -88,76 -123,81 -86,99 -363,57 -467,1 -121,-66 -216,-176 -278,-298 -70,-137 -86,-292 -134,-441 -26,-80 -92,-229 -138,-293 -86,-120 52,-89 133,-87 54,1 106,-2 158,-1 31,1 124,-7 150,2 21,7 27,19 45,31 27,18 27,7 42,44 126,68 273,389 303,559 9,48 0,77 43,88 17,-96 -1,-226 -30,-330 -46,-159 -69,-160 -114,-262 -21,-15 -35,-50 -59,-82 -25,-33 -49,-48 -65,-79 42,-39 312,-106 451,72zm-596 -1060c15,-40 17,-33 28,-44l32 -35c117,-112 399,-127 537,-63 13,6 31,18 44,25 44,24 78,55 89,109 47,69 27,250 -96,334 -88,59 -150,93 -268,81 -122,-12 -139,-29 -232,-75 -12,-6 -24,-13 -32,-19 -50,-37 -91,-80 -115,-140 -21,-53 -23,-135 13,-173zm-516 -103c22,-5 195,-90 295,-123 117,-38 253,-53 380,-47 -20,13 -166,51 -234,126 -138,151 -172,294 -11,486 92,110 284,185 442,194 7,40 -7,82 -22,117 -26,60 -62,90 -97,117 -34,28 -119,62 -162,75 -175,53 -364,40 -540,21 -212,-23 -484,-121 -641,-248 -36,-29 -129,-97 -139,-156 36,-11 77,7 100,-17 27,-28 -4,-57 -24,-69 -107,-59 -257,-44 -345,73 -38,52 -71,125 -22,156 36,9 69,-68 158,-103 19,27 75,294 220,490l220 261c97,79 180,133 299,184 65,28 128,35 190,56l55 209 38 114c156,429 674,681 1064,389 66,-50 75,-50 121,-127 15,-16 31,-39 45,-61 8,-14 12,-25 19,-40l16 -36c1,-1 3,-4 4,-5 61,-207 58,-373 -8,-577 -27,-85 -65,-170 -106,-233 -79,-124 -69,-84 -67,-268 65,-22 117,-56 162,-93 178,-145 293,-497 140,-501 -51,52 -42,241 -200,374 -132,112 -250,152 -436,142 45,-97 67,-101 78,-246 213,-39 370,-163 413,-358 23,-104 -6,-144 -16,-233 -32,-21 -22,-44 -48,-72 -8,-8 -22,-20 -31,-28 -10,-10 -21,-24 -33,-34l-74 -52c-32,-18 -52,-27 -87,-41 -264,-107 -576,-143 -845,-37 -31,12 -60,22 -88,39l-76 50c-18,13 -51,41 -68,58 -48,50 -48,52 -39,74z"/>
   <path class="fil4" d="M2701 624l19 6c-39,27 -79,81 -103,128 -21,43 -18,25 -37,55 -6,9 -16,26 -23,38 -17,28 -33,55 -46,80 -25,50 -56,130 -71,183 -12,39 -24,53 -35,94 -45,161 -62,383 -27,549 15,69 87,349 115,393l-13 9c-2,1 -4,4 -5,6l-8 15c103,-51 197,-113 312,-159 59,-24 105,-49 166,-71 308,-113 558,-215 920,-266l-25 -12c-3,-1 -5,-2 -8,-3 -25,-7 -16,19 -29,-60 -50,-12 -68,-130 -91,-212 -38,-140 -97,-326 -154,-456 -75,-169 -213,-474 -422,-479 -120,-3 -372,106 -435,162z"/>
   <path class="fil1" d="M887 3906c115,22 264,59 385,-57l21 -36c40,10 58,15 100,8l16 40c0,1 1,3 2,5l-3 -43c53,-11 94,-36 138,-64 207,-127 186,-438 301,-689 30,-66 102,-206 95,-291 -82,-109 -205,35 -240,87l-111 193c-57,105 30,42 -150,146 -66,38 -60,40 -99,97 -98,144 -75,175 -98,276l-5 13c-38,4 -66,-154 7,-301l60 -93c37,-47 80,-67 137,-107 -1,-42 -49,-158 -57,-322 -6,-120 -8,-235 -20,-355 -18,-167 -29,-313 -107,-460 -39,-75 -104,-96 -131,-43 -39,75 8,341 20,418 23,161 25,304 38,467 31,-7 51,0 79,6 -2,46 -17,38 -63,54 -31,11 -59,20 -88,32 -136,54 -187,90 -303,171 -28,20 -104,91 -132,85 -10,-43 27,-72 41,-113 -14,-20 -40,-56 -57,-74l-319 -324c-137,-125 -349,-130 -41,270 362,470 239,209 293,510 77,432 271,450 291,494z"/>
   <path class="fil1" d="M6498 3698c56,-1 84,-1 130,-14 59,-17 51,9 101,29 96,38 169,32 267,-2 34,-15 51,-24 71,-44 20,-21 41,-41 61,-66 79,-98 123,-243 137,-374 22,-206 -39,-110 116,-313 66,-88 347,-459 264,-539 -73,-70 -226,140 -283,190 -36,31 -87,93 -121,133 -37,45 -48,42 -121,138 24,36 57,62 55,117 -34,1 -54,-20 -73,-36 -100,-85 -254,-167 -383,-209 -44,-15 -159,-29 -184,-59 25,-26 22,-16 51,-31 16,-8 5,-1 18,-11 1,-98 -5,-196 -4,-296 1,-108 75,-737 -90,-615 -174,129 -79,935 -129,1246 235,44 399,349 329,458 -23,-6 -6,14 -23,-24 -41,-91 -24,-108 -135,-222 -42,-44 -46,-51 -116,-88 -86,-46 -61,-27 -154,-26 -64,-93 -136,-286 -258,-358 -93,-55 -170,-10 -134,101 41,127 155,265 201,409 64,196 80,344 302,461 37,20 69,25 105,45z"/>
   <path class="fil4" d="M2527 2258c25,17 -31,23 42,6l26 -13c19,8 -48,-5 35,41 2,1 9,4 12,6 55,28 64,49 130,64 -27,17 -25,3 -18,31 49,-42 634,-195 758,-224 275,-62 600,-103 885,-115 377,-16 756,-1 1120,103 36,10 63,18 98,31 19,6 69,30 90,35 140,36 255,-131 85,-245 -159,-107 -558,-176 -789,-203 -594,-70 -1190,36 -1748,203 -126,38 -255,83 -370,129 -57,24 -123,46 -175,72 -57,27 -125,61 -181,79z"/>
   <path class="fil5" d="M4691 4402c45,102 68,103 114,262 29,104 47,234 30,330 -43,-11 -34,-40 -43,-88 -30,-170 -177,-491 -303,-559 -32,42 37,-19 -14,10 -57,-26 -302,2 -309,104 -2,25 13,95 19,121 43,217 67,380 195,559l40 52c2,1 3,3 5,4 28,32 21,37 44,57 155,129 301,179 505,121l4 14c35,-5 100,-59 123,-81 29,-28 58,-68 82,-114 152,-297 30,-633 -165,-881 -76,-11 -123,-32 -192,9l-45 30c-46,34 -37,50 -90,50z"/>
   <path class="fil6" d="M2754 2393c-7,-28 -9,-14 18,-31 -66,-15 -75,-36 -130,-64 -3,-2 -10,-5 -12,-6 -83,-46 -16,-33 -35,-41l-26 13c-73,17 -17,11 -42,-6 -33,29 -383,206 -432,213 13,-48 85,-89 125,-120l149 -106c24,-16 90,-58 98,-65l8 -15c1,-2 3,-5 5,-6l13 -9c-28,-44 -100,-324 -115,-393 -35,-166 -18,-388 27,-549 11,-41 23,-55 35,-94 15,-53 46,-133 71,-183 13,-25 29,-52 46,-80 7,-12 17,-29 23,-38 19,-30 16,-12 37,-55 24,-47 64,-101 103,-128l-19 -6c-59,20 -171,116 -215,147l-260 273c-339,420 -456,1019 -348,1543 65,7 131,31 168,78 21,25 13,28 32,48l155 -88c162,-90 345,-167 521,-232z"/>
   <path class="fil3" d="M2446 4597c45,-7 24,13 47,19 22,-28 21,-12 40,-31 -12,-20 -9,-15 -27,-34 -23,-24 -15,-16 -33,-44 -186,-292 -238,-486 -221,-847l-88 4c-2,-4 -4,-10 -4,-9l-10 -32c-5,-32 7,-83 19,-113l115 -199c0,0 10,-12 11,-13 1,-2 3,-4 4,-5 1,-1 2,-3 3,-5l63 -83 -164 9c18,-60 112,-226 151,-275l69 -66c96,-65 -14,-9 150,-87 232,-112 764,-264 1032,-305 74,-12 145,-27 224,-38 226,-33 794,-87 1004,-65l367 30c45,5 71,11 118,19 25,4 205,32 217,44 2,-41 -26,-32 -17,-99l-3 -44c-166,-31 -317,-78 -497,-87 -176,-8 -377,-29 -567,-14 -183,15 -353,24 -534,48 -451,59 -1083,229 -1483,432 -144,73 -99,32 -141,146 -27,74 -133,268 -193,325 -13,12 -3,1 -17,15l-53 66c-17,24 -20,24 -28,54l195 -9c-19,49 -39,87 -68,132 -26,41 -39,89 -60,134 -31,64 -84,255 -78,322 120,-58 79,-69 132,-75 37,104 -65,305 142,612 67,99 26,27 68,76l115 92z"/>
   <path class="fil3 str3" d="M748 4791c8,16 21,58 28,82 27,84 25,65 49,79 1,-30 4,-39 11,-66 1,-4 9,-33 10,-33l13 -21c83,143 39,103 145,247 18,24 2,4 15,18 10,10 1,-1 17,17 10,12 15,20 26,34 22,26 36,40 63,63l77 68c1,1 3,3 4,4 43,36 92,60 138,92 196,134 545,218 786,235l-94 223 -99 367c-8,51 -14,78 -25,129 -20,88 -24,186 -35,274 11,6 3,3 22,11l103 25c28,5 103,15 119,24 18,-17 4,-10 33,-14 25,-2 49,17 75,5 4,-67 -1,-134 12,-203l56 -383c6,-60 29,-114 44,-177 -47,20 -72,10 -116,49 -2,1 -5,7 -6,5 -1,-1 -4,4 -5,6 -8,-179 102,-462 107,-563 -30,-10 -195,-31 -227,-35 -81,-9 -136,-29 -207,-48l-263 -118c-80,-49 -34,-20 -66,-59 -15,18 -13,-19 -11,37 1,32 15,83 10,124l-332 -212c-1,-1 -3,-3 -4,-4 -21,-18 8,2 -22,-19 -7,-5 -15,-9 -22,-13 -36,-23 -58,-41 -80,-81 -6,-10 -7,-16 -16,-27l-28 -31c-1,-2 -6,-8 -7,-9l-36 -49c-1,-1 -3,-3 -4,-5l-40 -53c-15,-21 -48,-65 -52,-96l-13 32c-12,43 -6,69 -33,81 -82,-217 -121,-441 -153,-678 -4,99 -17,255 -4,353 7,55 10,106 21,165 6,37 40,128 16,148z"/>
   <path class="fil1" d="M5335 4585c57,-21 53,-43 88,-82 1,-1 3,-3 4,-4l33 -43c17,-20 25,-24 38,-46 32,-55 102,-180 103,-245 3,2 6,2 7,7 4,18 5,-22 29,67 6,23 15,50 18,75 7,67 -36,85 -43,135 137,-260 213,-523 126,-832 48,-5 76,17 107,29 1,-72 -70,-262 -99,-301 -106,-60 -135,-111 -308,-135 -44,-6 -102,5 -143,-17 10,89 39,129 16,233 -43,195 -200,319 -413,358 -11,145 -33,149 -78,246 186,10 304,-30 436,-142 158,-133 149,-322 200,-374 153,4 38,356 -140,501 -45,37 -97,71 -162,93 -2,184 -12,144 67,268 41,63 73,130 100,214 11,-1 9,0 14,-5z"/>
   <path class="fil3 str3" d="M5744 5274c27,15 55,106 78,151 22,41 -11,-20 7,13l9 14c148,-27 271,-42 402,-104 158,-75 188,-78 324,-177l72 -55c78,-49 82,-97 122,-133 25,-22 3,8 27,-32 60,-98 86,-80 161,-281l25 -68c9,-16 -1,-6 14,-17l6 -115c-42,39 -6,-3 -36,20 -15,12 -15,32 -20,44 -15,42 -69,115 -99,155l-88 107c-49,54 -78,74 -123,131 -23,29 -4,16 -59,51l-10 7c-2,1 -4,2 -5,3l-110 46 6 -72c-8,12 -11,28 -30,45 -29,27 -158,94 -200,113 -78,36 -197,67 -289,74 -43,3 -79,8 -124,4 -18,-2 -36,-5 -53,-8 -42,-8 -22,-16 -34,-1 20,19 36,35 35,62l-8 23z"/>
   <path class="fil6" d="M3803 1609c13,79 4,53 29,60 3,1 5,2 8,3l25 12 61 -16 0 -11c0,-1 0,-3 0,-4 0,-1 1,-4 1,-5l-96 -624c-11,-71 -35,-138 -50,-213 -11,-57 -91,-265 -127,-322 -66,-105 -82,-82 -141,-147 -50,-57 30,-7 -87,-73 -46,-27 -51,-12 -70,-14 -3,0 -5,0 -8,-1 -3,0 -5,-1 -8,-2l-17 -7c-9,7 -38,16 -54,22 -35,12 -37,10 -55,32 35,4 119,61 148,85 23,18 40,34 60,58 118,144 130,160 222,381 62,150 195,618 159,786z"/>
   <path class="fil7" d="M4422 3253c7,3 8,9 18,-2 -3,73 64,118 127,136 159,45 355,59 502,-34 60,-39 53,-75 83,-108 -11,-54 -45,-85 -89,-109 -13,-7 -31,-19 -44,-25 -138,-64 -420,-49 -537,63l-32 35c-11,11 -13,4 -28,44z"/>
   <path class="fil1" d="M834 2930c136,-91 76,-46 194,-112 -63,-163 -202,-511 -289,-657 -29,-49 -92,-166 -173,-145 -121,31 58,402 83,463l185 451z"/>
   <path class="fil8" d="M4978 5389l-4 -14c-204,58 -350,8 -505,-121 -23,-20 -16,-25 -44,-57 -2,-1 -3,-3 -5,-4l-40 -52c-128,-179 -152,-342 -195,-559 -6,-26 -21,-96 -19,-121 7,-102 252,-130 309,-104 51,-29 -18,32 14,-10 -15,-37 -15,-26 -42,-44 -18,-12 -24,-24 -45,-31 -26,-9 -119,-1 -150,-2 -52,-1 -104,2 -158,1 -81,-2 -219,-33 -133,87 46,64 112,213 138,293 48,149 64,304 134,441 62,122 157,232 278,298 104,56 381,98 467,-1z"/>
   <path class="fil1" d="M6779 2631c37,18 72,25 106,39 36,16 66,40 96,56 55,-214 280,-756 209,-884 -144,-34 -216,236 -253,341l-158 448z"/>
   <path class="fil9" d="M4422 3253c-36,38 -34,120 -13,173 24,60 65,103 115,140 8,6 20,13 32,19 93,46 110,63 232,75 118,12 180,-22 268,-81 123,-84 143,-265 96,-334 -30,33 -23,69 -83,108 -147,93 -343,79 -502,34 -63,-18 -130,-63 -127,-136 -10,11 -11,5 -18,2z"/>
   <path class="fil0" d="M3047 3053c38,3 40,-5 60,-27 7,-9 7,-8 15,-18 47,-53 49,-56 101,-87 133,-81 297,-58 389,32 24,22 -1,7 35,33 48,34 27,59 80,48 35,-95 -11,-173 -82,-233 -123,-105 -254,-105 -398,-50 -42,16 -63,36 -107,71l-76 92c-20,39 -31,102 -17,139z"/>
   <path class="fil0" d="M5332 2860c68,-136 -169,-389 -390,-285 -30,14 -57,21 -81,46l-63 71c-47,65 -43,210 42,137l44 -41c97,-95 261,-90 369,14 24,23 35,56 79,58z"/>
   <path class="fil2" d="M4066 5066l-38 -114c-52,-16 -98,-17 -151,-29 -133,-31 -133,-33 -259,-79 -43,-16 -86,-44 -119,-57 8,50 179,196 232,223 141,70 201,82 354,120 -8,-23 -23,-53 -19,-64z"/>
   <path class="fil8" d="M4691 4402c53,0 44,-16 90,-50l45 -30c69,-41 116,-20 192,-9 -139,-178 -409,-111 -451,-72 16,31 40,46 65,79 24,32 38,67 59,82z"/>
  </g>
 </g>
</svg>
